<svg width="161" height="34" viewBox="0 0 161 34" fill="none" xmlns="http://www.w3.org/2000/svg">
<path d="M24.1819 2.04001C24.6805 2.04001 25.1352 2.08401 25.5459 2.17201C25.9566 2.26001 26.2939 2.50934 26.5579 2.92001C26.8512 3.30134 26.9979 3.97601 26.9979 4.94401C26.9979 5.85334 26.8512 6.51334 26.5579 6.92401C26.2939 7.33467 25.9419 7.58401 25.5019 7.67201C25.0619 7.76001 24.5925 7.80401 24.0939 7.80401H17.0099V29.584C17.0099 30.1413 16.9512 30.6693 16.8339 31.168C16.7459 31.6667 16.4672 32.0773 15.9979 32.4C15.5579 32.6933 14.7952 32.84 13.7099 32.84C12.6539 32.84 11.8912 32.6933 11.4219 32.4C10.9525 32.0773 10.6739 31.6667 10.5859 31.168C10.4979 30.64 10.4539 30.0973 10.4539 29.54V7.80401H3.28188C2.81255 7.80401 2.35788 7.76001 1.91788 7.67201C1.47788 7.55467 1.12588 7.30534 0.861881 6.92401C0.597881 6.51334 0.465881 5.83867 0.465881 4.90001C0.465881 3.96134 0.597881 3.30134 0.861881 2.92001C1.12588 2.50934 1.47788 2.26001 1.91788 2.17201C2.35788 2.08401 2.81255 2.04001 3.28188 2.04001H24.1819Z" fill="white"/>
<path d="M30.004 32.84C28.9186 32.84 28.1413 32.6933 27.672 32.4C27.232 32.0773 26.9533 31.652 26.836 31.124C26.748 30.596 26.704 30.0533 26.704 29.496V14.14C26.704 13.5533 26.7626 13.0107 26.88 12.512C26.9973 12.0133 27.276 11.6173 27.716 11.324C28.1853 11.0013 28.9626 10.84 30.048 10.84C31.0746 10.84 31.808 10.9867 32.248 11.28C32.7173 11.544 33.0106 11.8667 33.128 12.248C33.2453 12.6 33.304 12.908 33.304 13.172L32.776 13.436C32.8346 13.3187 32.9813 13.1133 33.216 12.82C33.48 12.4973 33.832 12.1747 34.272 11.852C34.712 11.5 35.24 11.2067 35.856 10.972C36.5013 10.7373 37.2346 10.62 38.056 10.62C38.3786 10.62 38.7306 10.6493 39.112 10.708C39.5226 10.7373 39.9333 10.8253 40.344 10.972C40.784 11.0893 41.18 11.2653 41.532 11.5C41.884 11.7053 42.1626 11.9693 42.368 12.292C42.6026 12.6147 42.72 13.0107 42.72 13.48C42.72 14.6827 42.4413 15.7093 41.884 16.56C41.3266 17.3813 40.6226 17.792 39.772 17.792C39.2733 17.792 38.9213 17.748 38.716 17.66C38.5106 17.572 38.3346 17.484 38.188 17.396C38.0706 17.308 37.924 17.2347 37.748 17.176C37.572 17.088 37.2493 17.044 36.78 17.044C36.34 17.044 35.9146 17.1027 35.504 17.22C35.1226 17.3373 34.756 17.528 34.404 17.792C34.0813 18.0267 33.8173 18.3347 33.612 18.716C33.436 19.068 33.348 19.464 33.348 19.904V29.584C33.348 30.1413 33.2893 30.684 33.172 31.212C33.084 31.7107 32.8053 32.1067 32.336 32.4C31.8666 32.6933 31.0893 32.84 30.004 32.84Z" fill="white"/>
<path d="M63.9146 32.796C62.8292 32.796 62.0226 32.6053 61.4946 32.224C60.9959 31.8427 60.7466 31.3733 60.7466 30.816L61.1866 30.068C61.0106 30.3613 60.6732 30.728 60.1746 31.168C59.6759 31.5787 59.0306 31.96 58.2386 32.312C57.4466 32.6347 56.4639 32.796 55.2906 32.796C53.9412 32.796 52.6506 32.5027 51.4186 31.916C50.2159 31.3293 49.1452 30.5227 48.2066 29.496C47.2679 28.44 46.5199 27.252 45.9626 25.932C45.4346 24.612 45.1706 23.2187 45.1706 21.752C45.1706 20.3147 45.4346 18.9507 45.9626 17.66C46.5199 16.34 47.2679 15.1813 48.2066 14.184C49.1746 13.1573 50.2599 12.3507 51.4626 11.764C52.6652 11.1773 53.9412 10.884 55.2906 10.884C56.3759 10.884 57.2999 11.0453 58.0626 11.368C58.8252 11.6613 59.4559 12.0133 59.9546 12.424C60.4826 12.8347 60.8786 13.2307 61.1426 13.612L60.7906 12.996C60.7612 12.292 60.9959 11.764 61.4946 11.412C62.0226 11.0307 62.8439 10.84 63.9586 10.84C65.0146 10.84 65.7626 11.0013 66.2026 11.324C66.6719 11.6467 66.9506 12.072 67.0386 12.6C67.1559 13.128 67.2146 13.6853 67.2146 14.272V29.452C67.2146 30.0093 67.1559 30.552 67.0386 31.08C66.9506 31.608 66.6719 32.0333 66.2026 32.356C65.7626 32.6493 64.9999 32.796 63.9146 32.796ZM56.2586 26.24C57.0212 26.24 57.7106 26.0493 58.3266 25.668C58.9719 25.2573 59.4706 24.7147 59.8226 24.04C60.2039 23.3653 60.3946 22.6173 60.3946 21.796C60.3946 20.9453 60.2039 20.1973 59.8226 19.552C59.4412 18.8773 58.9279 18.3493 58.2826 17.968C57.6372 17.5573 56.9332 17.352 56.1706 17.352C55.3199 17.352 54.5572 17.5573 53.8826 17.968C53.2372 18.3787 52.7092 18.9213 52.2986 19.596C51.9172 20.2707 51.7266 21.0333 51.7266 21.884C51.7266 22.676 51.9172 23.4093 52.2986 24.084C52.7092 24.7293 53.2519 25.2573 53.9266 25.668C54.6306 26.0493 55.4079 26.24 56.2586 26.24Z" fill="white"/>
<path d="M82.871 33.016C82.167 33.016 81.5657 32.884 81.067 32.62C80.5683 32.356 80.1723 31.9453 79.879 31.388L71.959 15.592C71.431 14.536 71.2697 13.6707 71.475 12.996C71.7097 12.292 72.3843 11.6613 73.499 11.104C74.6137 10.576 75.4937 10.4 76.139 10.576C76.8137 10.7227 77.415 11.3973 77.943 12.6L82.871 24.084L87.799 12.776C88.3563 11.5147 88.9577 10.7813 89.603 10.576C90.2483 10.3707 91.1577 10.5613 92.331 11.148C93.5337 11.7053 94.1937 12.3653 94.311 13.128C94.4577 13.8613 94.2817 14.712 93.783 15.68L85.907 31.388C85.643 31.9453 85.2617 32.356 84.763 32.62C84.2643 32.884 83.6337 33.016 82.871 33.016Z" fill="white"/>
<path d="M108.927 33.236C106.874 33.236 105.099 32.8987 103.603 32.224C102.136 31.5493 100.934 30.6693 99.9949 29.584C99.0562 28.4693 98.3522 27.2373 97.8829 25.888C97.4429 24.5387 97.2229 23.1893 97.2229 21.84C97.2229 19.64 97.7216 17.6893 98.7189 15.988C99.7162 14.2867 101.095 12.952 102.855 11.984C104.615 10.9867 106.639 10.488 108.927 10.488C110.628 10.488 112.095 10.7667 113.327 11.324C114.588 11.852 115.615 12.556 116.407 13.436C117.228 14.2867 117.83 15.2107 118.211 16.208C118.622 17.2053 118.827 18.1587 118.827 19.068C118.827 20.6813 118.431 21.884 117.639 22.676C116.876 23.4387 115.894 23.82 114.691 23.82H104.219C104.278 24.5827 104.542 25.228 105.011 25.756C105.51 26.284 106.126 26.6947 106.859 26.988C107.592 27.2813 108.37 27.428 109.191 27.428C109.895 27.428 110.511 27.3987 111.039 27.34C111.567 27.252 112.022 27.1493 112.403 27.032C112.784 26.8853 113.136 26.7533 113.459 26.636C113.782 26.4893 114.06 26.372 114.295 26.284C114.559 26.196 114.808 26.1373 115.043 26.108C115.483 26.0787 115.879 26.2107 116.231 26.504C116.612 26.768 116.95 27.1787 117.243 27.736C117.448 28.0587 117.58 28.3667 117.639 28.66C117.727 28.9533 117.771 29.2467 117.771 29.54C117.771 30.244 117.404 30.8747 116.671 31.432C115.967 31.9893 114.955 32.4293 113.635 32.752C112.344 33.0747 110.775 33.236 108.927 33.236ZM104.219 20.212H111.171C111.64 20.212 111.978 20.1387 112.183 19.992C112.418 19.816 112.535 19.4933 112.535 19.024C112.535 18.496 112.374 18.0413 112.051 17.66C111.728 17.2493 111.288 16.9413 110.731 16.736C110.203 16.5013 109.587 16.384 108.883 16.384C107.974 16.384 107.167 16.56 106.463 16.912C105.759 17.264 105.202 17.7333 104.791 18.32C104.41 18.9067 104.219 19.5373 104.219 20.212Z" fill="white"/>
<path d="M132.296 32.84C131.093 32.84 130.022 32.7667 129.084 32.62C128.174 32.5027 127.382 32.268 126.708 31.916C126.062 31.564 125.534 31.08 125.124 30.464C124.713 29.848 124.405 29.056 124.2 28.088C124.024 27.0907 123.936 25.8733 123.936 24.436V4.10801C123.936 3.52134 123.98 2.97867 124.068 2.48001C124.185 1.98134 124.478 1.57067 124.948 1.24801C125.417 0.925341 126.18 0.764008 127.236 0.764008C128.292 0.764008 129.04 0.925341 129.48 1.24801C129.949 1.57067 130.242 1.98134 130.36 2.48001C130.477 2.97867 130.536 3.52134 130.536 4.10801V24.128C130.536 24.5973 130.55 24.9933 130.58 25.316C130.638 25.6093 130.726 25.844 130.844 26.02C130.99 26.196 131.181 26.3133 131.416 26.372C131.65 26.4307 131.958 26.46 132.34 26.46C132.692 26.46 133.044 26.504 133.396 26.592C133.777 26.68 134.1 26.944 134.364 27.384C134.628 27.824 134.76 28.5573 134.76 29.584C134.76 30.64 134.628 31.4027 134.364 31.872C134.1 32.3413 133.777 32.62 133.396 32.708C133.044 32.796 132.677 32.84 132.296 32.84Z" fill="white"/>
<path d="M157.234 32.796C156.149 32.796 155.342 32.6053 154.814 32.224C154.315 31.8427 154.066 31.3733 154.066 30.816L154.506 30.068C154.33 30.3613 153.993 30.728 153.494 31.168C152.995 31.5787 152.35 31.96 151.558 32.312C150.766 32.6347 149.783 32.796 148.61 32.796C147.261 32.796 145.97 32.5027 144.738 31.916C143.535 31.3293 142.465 30.5227 141.526 29.496C140.587 28.44 139.839 27.252 139.282 25.932C138.754 24.612 138.49 23.2187 138.49 21.752C138.49 20.3147 138.754 18.9507 139.282 17.66C139.839 16.34 140.587 15.1813 141.526 14.184C142.494 13.1573 143.579 12.3507 144.782 11.764C145.985 11.1773 147.261 10.884 148.61 10.884C149.695 10.884 150.619 11.0453 151.382 11.368C152.145 11.6613 152.775 12.0133 153.274 12.424C153.802 12.8347 154.198 13.2307 154.462 13.612L154.11 12.996C154.081 12.292 154.315 11.764 154.814 11.412C155.342 11.0307 156.163 10.84 157.278 10.84C158.334 10.84 159.082 11.0013 159.522 11.324C159.991 11.6467 160.27 12.072 160.358 12.6C160.475 13.128 160.534 13.6853 160.534 14.272V29.452C160.534 30.0093 160.475 30.552 160.358 31.08C160.27 31.608 159.991 32.0333 159.522 32.356C159.082 32.6493 158.319 32.796 157.234 32.796ZM149.578 26.24C150.341 26.24 151.03 26.0493 151.646 25.668C152.291 25.2573 152.79 24.7147 153.142 24.04C153.523 23.3653 153.714 22.6173 153.714 21.796C153.714 20.9453 153.523 20.1973 153.142 19.552C152.761 18.8773 152.247 18.3493 151.602 17.968C150.957 17.5573 150.253 17.352 149.49 17.352C148.639 17.352 147.877 17.5573 147.202 17.968C146.557 18.3787 146.029 18.9213 145.618 19.596C145.237 20.2707 145.046 21.0333 145.046 21.884C145.046 22.676 145.237 23.4093 145.618 24.084C146.029 24.7293 146.571 25.2573 147.246 25.668C147.95 26.0493 148.727 26.24 149.578 26.24Z" fill="white"/>
</svg>
